<svg xmlns="http://www.w3.org/2000/svg" fill="none" viewBox="0 0 2048 2048">
    <path id="path1"
        d="M 0.39365966,2.91246 C -2.6636755,6.9315726 6.3473979,20.114264 242.24455,363.50763 c 287.87172,418.79202 278.0561,404.16241 286.42352,420.88195 29.76873,60.28675 34.11337,142.4375 10.7811,211.40556 -14.64299,43.56726 -49.23908,102.24636 -75.62869,128.61176 -22.36679,22.3463 -59.69839,40.0304 -88.82347,42.1203 -18.50491,1.4469 -44.57265,-7.8774 -57.28471,-20.2563 -20.43583,-19.7741 -26.06774,-44.6926 -16.41301,-71.058 5.7928,-15.7549 17.53938,-30.3845 36.52701,-45.8179 7.56287,-6.2699 13.83844,-12.2182 13.83844,-13.1827 0,-3.5369 -32.82607,-18.64875 -50.68728,-23.31091 -41.83717,-10.93202 -86.73165,-2.73302 -126.79876,23.15011 -22.04492,14.308 -59.21563,54.9815 -72.24951,78.9354 -21.401314,39.3874 -30.573279,83.5977 -30.895109,146.939 0,49.5155 4.022778,89.5459 15.608466,148.3858 14.964813,76.0417 32.182413,139.2222 61.468423,224.1059 27.35504,79.0963 52.77917,136.3285 90.59349,204.3319 36.84888,66.0743 97.99547,151.9227 149.16551,209.1549 l 17.86125,20.0956 7.56288,-9.8067 c 21.72313,-28.1338 30.8951,-57.5537 31.86058,-103.854 0.64365,-26.6869 -1.6091,-47.2648 -7.08011,-70.4149 -1.93096,-7.7167 -29.92967,-102.5678 -62.11208,-210.6017 -32.50424,-108.0339 -59.85932,-201.5989 -60.9857,-207.8688 -1.12637,-6.2698 -1.77003,-17.2018 -1.4482,-23.9539 1.4482,-29.0984 25.26319,-30.706 52.45734,-3.2153 6.5974,6.5914 14.64299,16.5588 17.70033,22.5071 3.05733,5.6268 56.15834,129.094 117.94858,274.1038 61.95115,145.1705 113.44301,264.7794 114.73032,266.0655 2.57458,2.5722 10.62021,-7.3952 24.45865,-30.2237 31.21693,-52.0878 34.75695,-114.143 10.6202,-187.1301 -3.21826,-9.6459 -38.13618,-98.8703 -77.39875,-197.9014 -39.42346,-99.1918 -72.41042,-184.5578 -73.05407,-190.0238 -1.60913,-12.5397 4.34461,-32.6353 12.06841,-40.6735 12.06841,-12.3788 24.61954,-10.1281 38.45798,6.5914 5.31012,6.2698 54.71013,100.9602 137.258,262.8502 70.96222,139.0615 130.01696,254.0082 131.46516,255.4551 3.05733,3.0546 1.77003,4.6622 17.05667,-22.1855 29.76876,-51.6055 39.90621,-87.1345 38.94073,-136.9715 -1.60913,-94.5297 -16.41301,-143.4021 -88.9844,-293.3956 -48.43453,-100.1564 -66.77847,-149.0288 -69.51398,-185.2009 -0.96548,-13.5042 4.98826,-34.8859 11.74655,-41.638 5.95377,-5.9483 20.43583,-6.9129 30.09055,-2.09 18.98763,9.6459 26.06778,20.8994 172.98051,278.2837 133.23523,233.1088 229.29973,391.1404 250.54013,412.6829 25.2632,25.8831 61.6293,25.5616 88.3408,-0.8038 14.9648,-14.6296 20.4358,-30.063 16.8957,-47.4256 -1.77,-8.199 -59.8593,-131.1839 -182.1525,-384.5491 -178.93421,-371.0449 -179.57786,-372.331 -168.314,-362.0421 6.11463,5.7876 151.2574,162.0508 322.6287,347.091 171.3714,185.0401 312.1695,336.6412 313.135,336.6412 0.8045,0.1606 42.6417,-40.9949 93.0072,-91.3143 50.3654,-50.3194 91.5589,-92.1182 91.398,-92.922 0,-0.9646 -151.7401,-141.6337 -336.9499,-312.8481 -185.2098,-171.2144 -341.6164,-316.22414 -347.4092,-322.33318 -10.2984,-11.25351 -9.0111,-10.61046 362.374,168.15988 253.5975,122.1811 376.6952,180.2172 384.9017,181.9856 17.3786,3.5368 32.8261,-1.9291 47.4691,-16.8803 26.3896,-26.6869 26.7114,-63.0197 0.8046,-88.2598 -21.5622,-21.2209 -179.7388,-117.1974 -413.0614,-250.31063 -257.6202,-146.77814 -268.8841,-153.85179 -278.5388,-172.822 -4.8274,-9.64588 -3.8619,-24.11471 2.0919,-30.063 6.7583,-6.75213 28.1596,-12.70039 41.6762,-11.73581 36.2052,2.73301 85.1225,21.06017 185.3707,69.45033 150.131,72.50487 199.0483,87.29522 293.6646,88.90284 49.8827,0.96461 85.4443,-9.16358 137.0971,-38.90502 26.8723,-15.27266 25.2632,-13.98652 22.2059,-17.04106 -1.4482,-1.44688 -116.5004,-60.44753 -255.6894,-131.34474 -162.0384,-82.47232 -256.8157,-131.82705 -263.0912,-137.1323 -16.7349,-13.82574 -18.9877,-26.36538 -6.5974,-38.42275 8.0456,-7.7167 28.1596,-13.665 40.7107,-12.05734 5.4711,0.64305 90.9154,33.59982 190.1981,72.98714 99.1219,39.22658 188.4281,74.11253 198.0828,77.32781 73.0541,24.11471 135.1662,20.5779 187.3017,-10.61046 22.8495,-13.82577 32.826,-21.86399 30.2515,-24.43623 -1.2873,-1.28613 -121.0059,-52.73079 -266.3096,-114.62521 -145.1427,-61.73363 -268.7231,-114.78599 -274.3551,-117.84053 -5.9537,-3.05453 -15.9302,-11.09275 -22.5276,-17.68409 -27.516,-27.16925 -25.9069,-50.9624 3.2182,-52.40928 6.7583,-0.32164 17.7003,0.32164 23.9759,1.44688 6.2756,1.12535 99.9264,28.45534 208.0593,60.92981 108.1329,32.15296 203.0711,60.12599 210.7948,62.05518 23.1714,5.46599 43.7681,7.7167 70.4796,7.07365 46.3426,-0.96457 75.7895,-10.12819 103.9492,-31.83141 L 2048,407.23566 2027.886,389.39078 C 1953.5446,323.15569 1862.1465,261.42205 1766.8866,213.19267 1645.0761,151.29824 1447.4761,91.493786 1314.8845,76.381912 c -17.5394,-2.089965 -50.6873,-3.697587 -73.6977,-3.536844 -63.3994,0.321638 -107.6502,9.48514 -147.0737,30.866842 -23.9759,13.02194 -64.6866,50.15857 -79.0078,72.18331 -25.90687,40.03042 -34.11339,84.88378 -23.17136,126.6826 4.66647,17.84486 19.79226,50.64088 23.33226,50.64088 0.9655,0 6.9192,-6.26982 13.1948,-13.82578 15.4476,-18.97024 30.0905,-30.70606 45.8599,-36.49357 26.3896,-9.64589 51.331,-4.01911 71.1232,16.39797 12.3902,12.70043 21.7231,38.74432 20.2749,57.23226 -2.0919,29.09842 -19.7922,66.39582 -42.159,88.74209 -26.3895,26.36542 -85.1225,60.9298 -128.72962,75.55941 -69.03129,23.31088 -151.25737,18.97024 -211.27759,-10.77124 -17.05671,-8.35975 -7.24105,-1.7684 -418.69323,-284.23197 C 169.19045,111.42861 7.7956372,0.98327546 6.3473979,0.17944543 4.7383018,-0.4636035 2.0027934,0.66175101 0.39365966,2.91246 Z" />
    <style>
        path {
            fill: #000;
        }

        @media (prefers-color-scheme: dark) {
            path {
                fill: #FFF;
            }
        }
    </style>
</svg>
